<svg xmlns="http://www.w3.org/2000/svg" width="282.206" height="63.548" viewBox="0 0 282.206 63.548">
  <style>
    path {
      stroke-dasharray: 10;
      stroke-dashoffset: 10;
      transition: stroke-dashoffset 1s ease;
      animation: draw 3s ease infinite;
    }

    @keyframes draw {
      to {
        stroke-dashoffset: 0;
      }
    }
  </style>
  <path id="circle_switch_off" data-name="circle switch off" d="M713.295,121.457c-.912.115-37.205-1.189-85.876,0s-98.045,7.942-138.713,23.917c-5.912,2.323-11.74,4.9-15.668,8.4s-5.681,8.087-2.927,11.934c3.654,5.1,13.591,7.352,22.61,8.865,71.833,12.053,150.2,10.329,220.574-4.85,15.158-3.27,31.9-8.5,35-17.857,2.468-7.455-5.313-15.041-15.965-19.239s-23.672-5.666-36.363-6.751a836.186,836.186,0,0,0-178.6,3.968" transform="translate(-467.572 -119.962)" fill="none" stroke="#f0c954" stroke-miterlimit="10" stroke-width="2" pathLength="10" />
</svg>
