<svg xmlns="http://www.w3.org/2000/svg" width="305.285" height="63.258" viewBox="0 0 305.285 63.258">
  <path id="circle_sketch_out" data-name="circle sketch out" d="M772.772,128.369c-48.18-4.046-96.683-8.1-145.354-6.912s-98.045,7.942-138.713,23.917c-5.912,2.323-11.74,4.9-15.668,8.4s-5.681,8.087-2.927,11.934c3.654,5.1,13.591,7.352,22.61,8.865,71.833,12.053,150.2,10.329,220.574-4.85,15.158-3.27,31.9-8.5,35-17.857,2.468-7.455-5.313-15.041-15.965-19.239s-23.672-5.666-36.363-6.751a836.186,836.186,0,0,0-178.6,3.968" transform="translate(-467.572 -120.252)" fill="none" stroke="#f0c954" stroke-miterlimit="10" stroke-width="2"/>
</svg>
