<svg xmlns="http://www.w3.org/2000/svg" width="258.326" height="63.258" viewBox="0 0 258.326 63.258">
  <style>
    path {
      stroke-dasharray: 10;
      stroke-dashoffset: 10;
      transition: stroke-dashoffset 1s ease;
      animation: draw 3s ease infinite;
    }

    @keyframes draw {
      to {
        stroke-dashoffset: 0;
      }
    }
  </style>
  <path id="circle_elements" data-name="circle elements" d="M725.84,128.369c-40.742-4.046-81.757-8.1-122.913-6.912s-82.908,7.942-117.3,23.917c-5,2.323-9.927,4.9-13.249,8.4s-4.8,8.087-2.475,11.934c3.09,5.1,11.493,7.352,19.12,8.865,60.744,12.053,127.011,10.329,186.521-4.85,12.818-3.27,26.976-8.5,29.6-17.857,2.087-7.455-4.492-15.041-13.5-19.239s-20.017-5.666-30.749-6.751a598.786,598.786,0,0,0-151.023,3.968" transform="translate(-467.612 -120.252)" fill="none" stroke="#86c03f" stroke-miterlimit="10" stroke-width="2" pathLength="10" />
</svg>
