<svg xmlns="http://www.w3.org/2000/svg" width="40" height="40" viewBox="0 0 40 40">
  <defs>
    <style>
      .cls-1 {
        fill: #fff;
      }
    </style>
  </defs>
  <path id="Facebook" class="cls-1" d="M873.795,678.371a20,20,0,1,0,20,20A20,20,0,0,0,873.795,678.371ZM884.727,708.1a1.2,1.2,0,0,1-1.2,1.2h-5.576v-8.471h2.824l.428-3.294h-3.271v-2.108c0-.955.263-1.61,1.637-1.61h1.746v-2.95a22.6,22.6,0,0,0-2.546-.132c-2.514,0-4.236,1.539-4.236,4.363v2.437h-2.851v3.294h2.865v8.471h-10.48a1.2,1.2,0,0,1-1.2-1.2V688.639a1.2,1.2,0,0,1,1.2-1.2h19.463a1.2,1.2,0,0,1,1.2,1.2Z" transform="translate(-853.795 -678.371)"/>
</svg>
