<svg xmlns="http://www.w3.org/2000/svg" width="119.83" height="40" viewBox="0 0 119.83 40">
  <g id="Featured_on_App_Store" data-name="Featured on App Store" transform="translate(-729.299 -457.593)">
    <path id="left_leaf" data-name="left leaf" d="M155.2,301.617l-.915-.419-1.119-.552c-.4-.216-.838-.432-1.285-.7q-.357-.2-.73-.421l.009-.1c.006-.051.005-.113.008-.178h0a.426.426,0,0,0,.126-.019,2.287,2.287,0,0,0,.616-.3,2.668,2.668,0,0,0,.519-.452,4.167,4.167,0,0,0,.932-2.332c.005-.033.01-.066.014-.1a4.353,4.353,0,0,0-.848-2.542c-.155-.241-.29-.449-.405-.618a2.139,2.139,0,0,0-.368-.454.157.157,0,0,0-.093-.039,1.336,1.336,0,0,0-.732.524,2.758,2.758,0,0,0-.3.433,6.014,6.014,0,0,0-.662,2.347c0,.034-.006.068-.008.1a5.455,5.455,0,0,0,.516,2.318c.078.18.15.343.217.486a1.739,1.739,0,0,0,.387.608c0,.012,0,.024-.006.035-.011.063-.018.121-.03.172l-.01.044c-.664-.4-1.36-.852-2.073-1.36-.672-.479-1.356-1.009-2.034-1.591l.019-.073c.014-.049.024-.111.038-.175h0a.416.416,0,0,0,.128,0,2.4,2.4,0,0,0,.662-.225,2.867,2.867,0,0,0,.591-.385,4.419,4.419,0,0,0,1.32-2.2c.011-.032.021-.064.03-.1a4.207,4.207,0,0,0-.406-2.618c-.113-.257-.21-.479-.3-.661a2,2,0,0,0-.286-.494.146.146,0,0,0-.086-.05,1.42,1.42,0,0,0-.814.43,2.962,2.962,0,0,0-.373.392,6.312,6.312,0,0,0-1.056,2.243c-.009.033-.018.067-.026.1a5.346,5.346,0,0,0,.115,2.356c.047.188.09.358.132.507a1.637,1.637,0,0,0,.279.648l-.012.034c-.022.061-.038.117-.059.166l0,.012q-.481-.417-.955-.87a23.513,23.513,0,0,1-2.508-2.829l.023-.048c.024-.047.046-.106.072-.167h0a.421.421,0,0,0,.126.014,2.5,2.5,0,0,0,.7-.131,3.078,3.078,0,0,0,.657-.3,4.783,4.783,0,0,0,1.73-1.984c.017-.03.033-.06.049-.09a4.169,4.169,0,0,0,.109-2.639c-.061-.269-.114-.5-.163-.693a1.871,1.871,0,0,0-.186-.527.137.137,0,0,0-.075-.061,1.507,1.507,0,0,0-.887.312,3.234,3.234,0,0,0-.444.336,6.8,6.8,0,0,0-1.479,2.067c-.015.032-.03.064-.045.1a5.388,5.388,0,0,0-.345,2.34c.01.191.019.365.031.518a1.554,1.554,0,0,0,.149.678l-.018.032c-.03.052-.055.1-.082.142q-.13-.175-.257-.352c-.427-.608-.826-1.242-1.2-1.9a21.239,21.239,0,0,1-.982-2.043l-.027-.068.03-.039c.035-.042.07-.1.111-.151h0a.4.4,0,0,0,.121.036,2.564,2.564,0,0,0,.714-.009,3.289,3.289,0,0,0,.716-.18,5.3,5.3,0,0,0,2.174-1.646l.07-.08a4.3,4.3,0,0,0,.746-2.565c.005-.274.01-.511.008-.706a1.778,1.778,0,0,0-.055-.548.122.122,0,0,0-.058-.073,1.571,1.571,0,0,0-.944.153,3.583,3.583,0,0,0-.516.253,7.552,7.552,0,0,0-1.948,1.77c-.023.028-.045.057-.067.086a5.669,5.669,0,0,0-.9,2.232c-.037.189-.07.361-.095.512a1.521,1.521,0,0,0-.018.69l-.026.028c-.039.043-.073.082-.107.117a18.564,18.564,0,0,1-1.126-4.191q-.05-.355-.086-.71l.119-.1c.04-.033.083-.077.131-.122h0a.349.349,0,0,0,.1.05,2.317,2.317,0,0,0,.649.094,3.121,3.121,0,0,0,.686-.06,5.323,5.323,0,0,0,2.306-1.182l.079-.063a4.236,4.236,0,0,0,1.2-2.221c.06-.248.112-.462.15-.639a1.642,1.642,0,0,0,.061-.505A.1.1,0,0,0,145,278.4a1.464,1.464,0,0,0-.887,0,3.514,3.514,0,0,0-.519.155,7.632,7.632,0,0,0-2.126,1.327l-.078.068a5.663,5.663,0,0,0-1.272,1.9c-.072.166-.136.317-.19.452a1.435,1.435,0,0,0-.156.623l-.029.022c-.052.039-.1.076-.143.106l-.057.04a20.635,20.635,0,0,1-.018-3.659q.052-.618.141-1.228l.125-.063c.047-.022.1-.054.158-.085h0a.3.3,0,0,0,.08.068,2.081,2.081,0,0,0,.576.225,2.966,2.966,0,0,0,.657.089,5.591,5.591,0,0,0,2.5-.613l.093-.042a4.631,4.631,0,0,0,1.776-1.815c.13-.218.242-.406.331-.564a1.7,1.7,0,0,0,.208-.457.092.092,0,0,0-.014-.077,1.364,1.364,0,0,0-.827-.183,3.522,3.522,0,0,0-.53.035,8.158,8.158,0,0,0-2.375.787l-.093.047a6.239,6.239,0,0,0-1.751,1.5c-.117.14-.222.267-.311.381a1.518,1.518,0,0,0-.331.547l-.033.014c-.06.026-.114.051-.164.069l-.058.022a20.514,20.514,0,0,1,.678-2.961c.151-.489.319-.968.5-1.436l.058-.023c.049-.018.106-.045.168-.071h0a.281.281,0,0,0,.072.075,2,2,0,0,0,.546.273,2.913,2.913,0,0,0,.643.145,5.7,5.7,0,0,0,2.562-.395l.1-.034A4.877,4.877,0,0,0,147,272.01c.156-.205.291-.383.4-.532a1.77,1.77,0,0,0,.262-.437.091.091,0,0,0,0-.078,1.326,1.326,0,0,0-.8-.254,3.531,3.531,0,0,0-.531-.011,8.385,8.385,0,0,0-2.459.578l-.1.039a6.564,6.564,0,0,0-1.924,1.338c-.133.129-.253.246-.356.352a1.593,1.593,0,0,0-.4.516l-.035.011c-.053.017-.1.033-.145.046a22.141,22.141,0,0,1,1.068-2.306,24.185,24.185,0,0,1,1.3-2.149l.141-.024c.046-.007.1-.02.16-.032h0a.225.225,0,0,0,.043.076,1.576,1.576,0,0,0,.4.327,2.373,2.373,0,0,0,.513.234,5.053,5.053,0,0,0,2.281.105l.091-.012a4.774,4.774,0,0,0,2.1-1.067c.183-.148.341-.277.469-.385a1.744,1.744,0,0,0,.33-.327.081.081,0,0,0,.016-.067c-.022-.089-.259-.243-.621-.354a2.978,2.978,0,0,0-.451-.1,7.586,7.586,0,0,0-2.238.069l-.093.016a6.379,6.379,0,0,0-1.967.809c-.145.087-.276.166-.39.239a1.576,1.576,0,0,0-.463.372l-.033,0c-.059.006-.112.014-.16.017l-.06,0c.232-.339.467-.667.7-.981.448-.594.9-1.14,1.345-1.64a1.483,1.483,0,0,0,.688-.08q.2-.053.446-.132a4.616,4.616,0,0,0,1.747-.975l.06-.059a8.315,8.315,0,0,0,1.2-1.54,2.3,2.3,0,0,0,.163-.346c.108-.29.113-.512.04-.574a.132.132,0,0,0-.076-.028,2.445,2.445,0,0,0-.529.021c-.184.02-.4.051-.649.092a3.827,3.827,0,0,0-2.081.914l-.054.06a4.287,4.287,0,0,0-1.04,1.675,1.614,1.614,0,0,0-.064.463,1.062,1.062,0,0,0,.079.43.34.34,0,0,0,.02.036c-.454.5-.918,1.046-1.378,1.641q-.385.5-.763,1.04l-.006-.017c-.015-.039-.026-.083-.04-.131l-.008-.027a1.3,1.3,0,0,0,.243-.5c.039-.115.079-.246.123-.392a4.192,4.192,0,0,0,.183-1.836c-.005-.026-.01-.053-.016-.079a4.848,4.848,0,0,0-.736-1.78,2.238,2.238,0,0,0-.275-.316,1.093,1.093,0,0,0-.618-.359.116.116,0,0,0-.069.037,1.586,1.586,0,0,0-.243.378c-.074.139-.159.31-.257.507a3.314,3.314,0,0,0-.42,2.032c.006.025.013.05.02.075a3.382,3.382,0,0,0,.945,1.75,2.17,2.17,0,0,0,.445.317,1.847,1.847,0,0,0,.507.194.346.346,0,0,0,.1.006h0c.008.05.014.1.023.137l.022.107a24.37,24.37,0,0,0-1.283,2.073,22.318,22.318,0,0,0-1.148,2.416l0-.007c-.022-.042-.041-.091-.065-.144l-.013-.029a1.421,1.421,0,0,0,.2-.591c.027-.135.052-.288.08-.457a4.753,4.753,0,0,0-.069-2.1c-.009-.029-.019-.059-.03-.088a5.79,5.79,0,0,0-1.1-1.938,2.721,2.721,0,0,0-.36-.33,1.3,1.3,0,0,0-.754-.34.126.126,0,0,0-.073.049,1.724,1.724,0,0,0-.218.454c-.063.165-.133.368-.215.6a3.721,3.721,0,0,0-.171,2.347q.016.042.034.083a4.062,4.062,0,0,0,1.333,1.883,2.611,2.611,0,0,0,.552.312,2.164,2.164,0,0,0,.6.166.38.38,0,0,0,.114,0h0c.017.056.03.11.047.153l.045.129c-.167.424-.324.855-.466,1.3a20.714,20.714,0,0,0-.728,3.012c-.027-.028-.054-.059-.084-.093l-.023-.025a1.355,1.355,0,0,0-.012-.614c-.021-.135-.05-.288-.082-.457a5.045,5.045,0,0,0-.794-1.991l-.059-.076a6.705,6.705,0,0,0-1.726-1.583,3.175,3.175,0,0,0-.458-.227,1.4,1.4,0,0,0-.839-.14.108.108,0,0,0-.052.065,1.588,1.588,0,0,0-.052.487c0,.174,0,.385,0,.629a3.827,3.827,0,0,0,.651,2.286l.062.071a4.7,4.7,0,0,0,1.928,1.473,2.886,2.886,0,0,0,.636.163,2.273,2.273,0,0,0,.635.01.365.365,0,0,0,.108-.031h0c.036.049.067.1.1.135l.038.048q-.093.592-.152,1.193a20.913,20.913,0,0,0-.035,3.641l-.054-.041-.029-.022a1.436,1.436,0,0,0-.156-.623c-.053-.134-.118-.285-.189-.452a5.664,5.664,0,0,0-1.273-1.9l-.078-.068a7.638,7.638,0,0,0-2.126-1.327,3.528,3.528,0,0,0-.519-.155,1.467,1.467,0,0,0-.887,0,.1.1,0,0,0-.038.074,1.652,1.652,0,0,0,.061.505c.038.177.09.392.15.639a4.237,4.237,0,0,0,1.2,2.221l.079.063a5.323,5.323,0,0,0,2.306,1.182,3.124,3.124,0,0,0,.686.06,2.312,2.312,0,0,0,.649-.094.348.348,0,0,0,.1-.05h0c.047.044.09.087.129.12q.033.388.082.776a18.738,18.738,0,0,0,1.065,4.217h0l-.036-.018a1.652,1.652,0,0,0-.321-.635c-.09-.133-.2-.282-.314-.446a6.772,6.772,0,0,0-1.826-1.789l-.1-.058a8.965,8.965,0,0,0-2.59-1.034,3.989,3.989,0,0,0-.59-.073,1.557,1.557,0,0,0-.944.153.105.105,0,0,0-.022.086,1.859,1.859,0,0,0,.191.525c.085.182.193.4.319.653a5.026,5.026,0,0,0,1.826,2.147l.1.053a6.174,6.174,0,0,0,2.746.847,3.361,3.361,0,0,0,.744-.057,2.411,2.411,0,0,0,.666-.215.349.349,0,0,0,.1-.071h0l.109.07.038.1a21.422,21.422,0,0,0,.969,2.085c.367.671.764,1.321,1.189,1.944q.126.182.256.361l-.032-.01-.04-.012a1.807,1.807,0,0,0-.462-.57c-.119-.116-.258-.245-.411-.386a7.462,7.462,0,0,0-2.2-1.457l-.111-.041a9.465,9.465,0,0,0-2.78-.591,3.963,3.963,0,0,0-.6.025,1.479,1.479,0,0,0-.891.3.1.1,0,0,0,0,.088,2.023,2.023,0,0,0,.309.484c.125.165.283.361.464.588a5.544,5.544,0,0,0,2.286,1.808l.11.035a6.427,6.427,0,0,0,2.889.383,3.283,3.283,0,0,0,.717-.178,2.239,2.239,0,0,0,.6-.32.313.313,0,0,0,.078-.085h0c.06.024.117.049.168.068a23.766,23.766,0,0,0,2.493,2.879q.523.513,1.058.982l-.1-.009-.042,0a2.051,2.051,0,0,0-.613-.458c-.149-.088-.321-.185-.511-.291a8.267,8.267,0,0,0-2.559-.961l-.12-.017a9.72,9.72,0,0,0-2.867,0,3.885,3.885,0,0,0-.571.146c-.458.157-.752.363-.776.477a.105.105,0,0,0,.024.085,2.283,2.283,0,0,0,.44.406c.169.134.378.292.62.475a6.2,6.2,0,0,0,2.741,1.286l.117.011a6.458,6.458,0,0,0,2.913-.22,3.019,3.019,0,0,0,.644-.319,2,2,0,0,0,.493-.434.276.276,0,0,0,.051-.1h0c.075.013.147.028.207.035l.042.006c.641.557,1.288,1.068,1.924,1.532.743.542,1.469,1.024,2.16,1.448l-.017,0c-.061.009-.129.014-.2.022l-.042,0a2.254,2.254,0,0,0-.714-.339c-.168-.06-.36-.124-.572-.193a8.738,8.738,0,0,0-2.743-.485l-.121,0a9.523,9.523,0,0,0-2.8.506,3.579,3.579,0,0,0-.521.244c-.409.235-.644.488-.639.6a.114.114,0,0,0,.045.08,2.537,2.537,0,0,0,.532.319c.2.1.443.218.726.354a6.641,6.641,0,0,0,3,.769l.117-.009a6.229,6.229,0,0,0,2.792-.733,2.738,2.738,0,0,0,.549-.426,1.785,1.785,0,0,0,.373-.512.26.26,0,0,0,.025-.105h0c.077,0,.151,0,.211,0l.163-.007c.214.129.424.254.63.371.451.273.9.5,1.3.72l1.13.573.931.439c.271.127.5.223.691.306l.576.252.3-.5-.579-.246C155.709,301.833,155.471,301.738,155.2,301.617Z" transform="translate(595.654 194.934)"/>
    <path id="right_leaf" data-name="right leaf" d="M1446.173,284.286a1.556,1.556,0,0,0-.944-.153,3.988,3.988,0,0,0-.59.073,8.962,8.962,0,0,0-2.59,1.034l-.1.058a6.778,6.778,0,0,0-1.826,1.789c-.118.164-.224.313-.314.446a1.652,1.652,0,0,0-.321.635l-.036.018h0a18.746,18.746,0,0,0,1.064-4.217q.049-.388.082-.776c.039-.033.082-.076.129-.12h0a.353.353,0,0,0,.1.05,2.314,2.314,0,0,0,.649.094,3.123,3.123,0,0,0,.686-.06,5.322,5.322,0,0,0,2.306-1.182l.079-.063a4.238,4.238,0,0,0,1.2-2.221c.06-.248.112-.462.15-.639a1.633,1.633,0,0,0,.061-.505.1.1,0,0,0-.038-.074,1.466,1.466,0,0,0-.887,0,3.529,3.529,0,0,0-.519.155,7.639,7.639,0,0,0-2.126,1.327l-.078.068a5.667,5.667,0,0,0-1.272,1.9c-.072.166-.136.317-.19.452a1.433,1.433,0,0,0-.156.623l-.029.022-.054.041a20.891,20.891,0,0,0-.035-3.641q-.058-.6-.152-1.193l.038-.048c.031-.037.062-.086.1-.135h0a.362.362,0,0,0,.108.031,2.274,2.274,0,0,0,.635-.01,2.881,2.881,0,0,0,.636-.163,4.7,4.7,0,0,0,1.928-1.473l.061-.071a3.822,3.822,0,0,0,.651-2.286c0-.244.006-.455,0-.629a1.606,1.606,0,0,0-.052-.487.11.11,0,0,0-.052-.065,1.4,1.4,0,0,0-.84.14,3.21,3.21,0,0,0-.458.227,6.71,6.71,0,0,0-1.726,1.583c-.02.025-.04.051-.059.076a5.049,5.049,0,0,0-.795,1.991c-.032.169-.06.321-.081.457a1.358,1.358,0,0,0-.013.614l-.023.025c-.03.034-.057.064-.084.093a20.706,20.706,0,0,0-.728-3.012c-.142-.441-.3-.873-.466-1.3l.045-.129c.016-.043.03-.1.047-.153h0a.384.384,0,0,0,.114,0,2.164,2.164,0,0,0,.6-.166,2.619,2.619,0,0,0,.553-.312,4.066,4.066,0,0,0,1.333-1.883c.012-.028.023-.055.034-.083a3.721,3.721,0,0,0-.171-2.347c-.081-.234-.152-.436-.214-.6a1.731,1.731,0,0,0-.218-.454.127.127,0,0,0-.073-.049,1.3,1.3,0,0,0-.754.34,2.726,2.726,0,0,0-.36.33,5.79,5.79,0,0,0-1.1,1.938c-.01.029-.02.058-.03.088a4.747,4.747,0,0,0-.068,2.1c.028.169.053.322.08.457a1.421,1.421,0,0,0,.2.591l-.013.029c-.023.053-.042.1-.065.144l0,.007a22.3,22.3,0,0,0-1.148-2.416,24.367,24.367,0,0,0-1.283-2.073l.022-.107c.009-.039.015-.087.023-.137h0a.348.348,0,0,0,.1-.006,1.841,1.841,0,0,0,.507-.194,2.157,2.157,0,0,0,.446-.317,3.379,3.379,0,0,0,.945-1.75c.007-.025.014-.05.02-.075a3.311,3.311,0,0,0-.42-2.032c-.1-.2-.182-.368-.257-.507a1.6,1.6,0,0,0-.243-.378.118.118,0,0,0-.069-.037,1.093,1.093,0,0,0-.618.359,2.263,2.263,0,0,0-.276.316,4.847,4.847,0,0,0-.736,1.78c-.006.026-.011.052-.016.079a4.186,4.186,0,0,0,.183,1.836c.044.145.084.277.123.392a1.306,1.306,0,0,0,.243.5l-.007.027c-.014.048-.025.093-.04.131l-.006.017q-.377-.541-.764-1.04c-.46-.595-.923-1.141-1.378-1.641a.306.306,0,0,0,.021-.036,1.062,1.062,0,0,0,.079-.43,1.619,1.619,0,0,0-.064-.463,4.291,4.291,0,0,0-1.04-1.675l-.054-.06a3.828,3.828,0,0,0-2.081-.914c-.247-.041-.465-.072-.649-.092a2.447,2.447,0,0,0-.529-.021.132.132,0,0,0-.076.028c-.073.063-.068.285.04.574a2.322,2.322,0,0,0,.163.346,8.3,8.3,0,0,0,1.2,1.54l.06.059a4.613,4.613,0,0,0,1.746.975q.243.078.446.132a1.482,1.482,0,0,0,.688.08c.444.5.9,1.047,1.345,1.64.237.314.472.642.7.981l-.059,0c-.048,0-.1-.01-.16-.017l-.032,0a1.579,1.579,0,0,0-.464-.372c-.114-.072-.245-.151-.39-.239a6.378,6.378,0,0,0-1.967-.809l-.093-.016a7.584,7.584,0,0,0-2.238-.069,2.976,2.976,0,0,0-.45.1c-.363.112-.6.266-.622.354a.082.082,0,0,0,.016.067,1.746,1.746,0,0,0,.33.327c.127.109.286.237.469.385a4.778,4.778,0,0,0,2.1,1.067l.091.012a5.052,5.052,0,0,0,2.281-.105,2.374,2.374,0,0,0,.513-.234,1.57,1.57,0,0,0,.4-.327.228.228,0,0,0,.043-.076h0c.059.012.114.025.161.032l.141.024a24.182,24.182,0,0,1,1.3,2.149,22.155,22.155,0,0,1,1.068,2.306c-.045-.013-.093-.029-.145-.046l-.035-.011a1.594,1.594,0,0,0-.4-.516c-.1-.106-.223-.223-.356-.352a6.567,6.567,0,0,0-1.924-1.338l-.1-.039a8.382,8.382,0,0,0-2.459-.578,3.531,3.531,0,0,0-.531.011,1.326,1.326,0,0,0-.8.254.091.091,0,0,0,0,.078,1.762,1.762,0,0,0,.262.437c.107.149.242.327.4.532a4.876,4.876,0,0,0,1.988,1.652l.1.034a5.7,5.7,0,0,0,2.561.395,2.912,2.912,0,0,0,.643-.145,1.992,1.992,0,0,0,.546-.273.285.285,0,0,0,.072-.075h0c.061.026.119.053.168.071l.058.023c.181.468.349.947.5,1.436a20.507,20.507,0,0,1,.677,2.961l-.057-.022c-.051-.018-.1-.043-.165-.069l-.034-.014a1.515,1.515,0,0,0-.331-.547c-.09-.114-.195-.241-.311-.381a6.238,6.238,0,0,0-1.751-1.5l-.093-.047a8.159,8.159,0,0,0-2.376-.787,3.516,3.516,0,0,0-.53-.035,1.364,1.364,0,0,0-.828.183.093.093,0,0,0-.013.077,1.686,1.686,0,0,0,.207.457c.088.157.2.346.331.564a4.63,4.63,0,0,0,1.776,1.815l.093.042a5.592,5.592,0,0,0,2.5.613,2.968,2.968,0,0,0,.657-.089,2.08,2.08,0,0,0,.576-.225.3.3,0,0,0,.08-.068h0c.058.031.111.063.158.085l.125.063q.089.609.141,1.228a20.624,20.624,0,0,1-.018,3.659l-.057-.04c-.045-.03-.09-.067-.142-.106l-.029-.022a1.434,1.434,0,0,0-.156-.623c-.053-.134-.118-.285-.19-.452a5.661,5.661,0,0,0-1.273-1.9c-.025-.023-.051-.046-.078-.068a7.635,7.635,0,0,0-2.125-1.327,3.518,3.518,0,0,0-.519-.155,1.465,1.465,0,0,0-.887,0,.1.1,0,0,0-.038.074,1.642,1.642,0,0,0,.061.505c.038.177.09.392.15.639a4.233,4.233,0,0,0,1.2,2.221l.079.063a5.323,5.323,0,0,0,2.306,1.182,3.125,3.125,0,0,0,.686.06,2.317,2.317,0,0,0,.649-.094.347.347,0,0,0,.1-.05h0c.047.044.091.089.131.122l.119.1q-.036.356-.086.71a18.551,18.551,0,0,1-1.126,4.191c-.034-.035-.068-.075-.107-.117l-.025-.028a1.52,1.52,0,0,0-.018-.69c-.025-.152-.058-.323-.095-.512a5.673,5.673,0,0,0-.9-2.232c-.021-.029-.044-.057-.067-.086a7.556,7.556,0,0,0-1.948-1.77,3.6,3.6,0,0,0-.516-.253,1.571,1.571,0,0,0-.944-.153.122.122,0,0,0-.058.073,1.778,1.778,0,0,0-.055.548c0,.2,0,.432.008.706a4.3,4.3,0,0,0,.746,2.565l.07.08a5.3,5.3,0,0,0,2.174,1.646,3.292,3.292,0,0,0,.716.18,2.562,2.562,0,0,0,.713.009.407.407,0,0,0,.121-.036h0c.04.055.076.11.111.151l.03.038-.027.068a21.2,21.2,0,0,1-.982,2.043c-.37.657-.77,1.292-1.2,1.9q-.127.178-.257.352c-.027-.042-.052-.09-.082-.142l-.018-.032a1.553,1.553,0,0,0,.15-.678c.012-.153.022-.326.031-.518a5.388,5.388,0,0,0-.345-2.34c-.014-.032-.029-.064-.045-.1a6.8,6.8,0,0,0-1.479-2.067,3.238,3.238,0,0,0-.444-.336,1.506,1.506,0,0,0-.886-.312.136.136,0,0,0-.075.061,1.876,1.876,0,0,0-.186.527c-.049.191-.1.423-.162.693a4.17,4.17,0,0,0,.109,2.639c.016.03.032.061.049.09a4.786,4.786,0,0,0,1.73,1.984,3.076,3.076,0,0,0,.658.3,2.5,2.5,0,0,0,.7.131.423.423,0,0,0,.127-.014h0c.026.061.048.12.072.167l.023.048a23.5,23.5,0,0,1-2.508,2.829q-.473.453-.955.87l0-.012c-.021-.049-.038-.105-.059-.166l-.012-.034a1.636,1.636,0,0,0,.279-.648c.042-.149.085-.319.132-.507a5.347,5.347,0,0,0,.116-2.356c-.008-.033-.017-.067-.026-.1a6.313,6.313,0,0,0-1.056-2.243,2.975,2.975,0,0,0-.373-.392,1.419,1.419,0,0,0-.814-.43.147.147,0,0,0-.086.05,2,2,0,0,0-.286.494c-.085.181-.183.4-.3.661a4.209,4.209,0,0,0-.406,2.618c.01.032.02.064.03.1a4.42,4.42,0,0,0,1.32,2.2,2.857,2.857,0,0,0,.591.385,2.4,2.4,0,0,0,.662.225.416.416,0,0,0,.127,0h0c.014.064.023.125.038.175l.019.073c-.678.582-1.362,1.112-2.034,1.591-.713.508-1.409.96-2.073,1.36l-.01-.044c-.012-.051-.019-.109-.03-.172l-.006-.035a1.735,1.735,0,0,0,.387-.608c.068-.143.139-.305.217-.486a5.454,5.454,0,0,0,.516-2.318c0-.034,0-.068-.008-.1a6.007,6.007,0,0,0-.662-2.347,2.742,2.742,0,0,0-.3-.433,1.335,1.335,0,0,0-.732-.524.157.157,0,0,0-.094.039,2.141,2.141,0,0,0-.367.454c-.116.169-.25.378-.405.618a4.354,4.354,0,0,0-.849,2.542q.006.049.014.1a4.164,4.164,0,0,0,.932,2.332,2.663,2.663,0,0,0,.518.452,2.287,2.287,0,0,0,.617.3.422.422,0,0,0,.126.019h0c0,.065,0,.127.008.178s.006.076.009.1q-.372.222-.73.421c-.447.263-.889.479-1.285.7l-1.118.552-.915.419c-.266.122-.5.217-.692.3l-.579.246.3.5.576-.252c.188-.084.42-.179.691-.306l.931-.439,1.13-.573c.4-.224.846-.448,1.3-.72q.309-.177.63-.371l.163.007c.06,0,.134,0,.211,0h0a.262.262,0,0,0,.025.105,1.785,1.785,0,0,0,.373.512,2.735,2.735,0,0,0,.549.426,6.228,6.228,0,0,0,2.791.733l.118.009a6.641,6.641,0,0,0,3-.769c.283-.136.527-.253.726-.354a2.53,2.53,0,0,0,.532-.319.112.112,0,0,0,.045-.08c.005-.116-.23-.369-.639-.6a3.6,3.6,0,0,0-.521-.244,9.525,9.525,0,0,0-2.8-.506l-.121,0a8.735,8.735,0,0,0-2.743.485c-.212.07-.4.134-.572.193a2.253,2.253,0,0,0-.714.339l-.042,0c-.075-.008-.144-.012-.2-.022l-.017,0c.691-.424,1.416-.906,2.16-1.448.636-.464,1.282-.974,1.924-1.532l.042-.006c.06-.007.131-.022.207-.035h0a.275.275,0,0,0,.051.1,2,2,0,0,0,.494.434,3.019,3.019,0,0,0,.644.319,6.458,6.458,0,0,0,2.913.22l.117-.011a6.2,6.2,0,0,0,2.741-1.286c.242-.183.451-.342.62-.475a2.287,2.287,0,0,0,.44-.406.1.1,0,0,0,.023-.085c-.024-.115-.318-.32-.776-.477a3.889,3.889,0,0,0-.571-.146,9.722,9.722,0,0,0-2.867,0l-.12.017a8.273,8.273,0,0,0-2.559.961c-.19.106-.362.2-.51.291a2.053,2.053,0,0,0-.613.458l-.042,0-.1.009q.534-.469,1.058-.982a23.747,23.747,0,0,0,2.493-2.879c.051-.019.108-.044.168-.068h0a.314.314,0,0,0,.078.085,2.246,2.246,0,0,0,.6.32,3.278,3.278,0,0,0,.717.178,6.427,6.427,0,0,0,2.889-.383l.111-.035a5.545,5.545,0,0,0,2.286-1.808c.182-.227.339-.424.464-.588a2.027,2.027,0,0,0,.309-.484.1.1,0,0,0,0-.088,1.477,1.477,0,0,0-.89-.3,3.97,3.97,0,0,0-.6-.025,9.466,9.466,0,0,0-2.78.591l-.112.041a7.463,7.463,0,0,0-2.2,1.457c-.154.142-.292.27-.411.386a1.808,1.808,0,0,0-.462.57l-.04.012-.032.01q.129-.179.256-.361a22.755,22.755,0,0,0,1.189-1.944,21.481,21.481,0,0,0,.969-2.085c.013-.033.025-.065.038-.1l.109-.07h0a.35.35,0,0,0,.1.071,2.412,2.412,0,0,0,.666.215,3.364,3.364,0,0,0,.744.057,6.173,6.173,0,0,0,2.745-.847l.1-.053a5.029,5.029,0,0,0,1.826-2.147c.126-.253.234-.471.319-.653a1.864,1.864,0,0,0,.191-.525A.1.1,0,0,0,1446.173,284.286Z" transform="translate(-597.066 194.934)"/>
    <text id="Featured_on_App_Store-2" data-name="Featured on
App Store" transform="translate(789.299 475.594)" font-size="12" font-family="ArialMT, Arial"><tspan x="-32.355" y="0">Featured on</tspan><tspan x="-26.684" y="14">App Store</tspan></text>
  </g>
</svg>
