<svg xmlns="http://www.w3.org/2000/svg" width="40" height="40" viewBox="0 0 40 40">
  <defs>
    <style>
      .cls-1 {
        fill: #fff;
      }
    </style>
  </defs>
  <g id="Instagram" transform="translate(-639.715 -678.371)">
    <path id="Path_313" data-name="Path 313" class="cls-1" d="M665.692,700.617a3.732,3.732,0,1,0,0,7.463h0a3.732,3.732,0,1,0,0-7.463Z" transform="translate(-5.977 -5.977)"/>
    <path id="Path_314" data-name="Path 314" class="cls-1" d="M672.428,695.751a3.723,3.723,0,0,0-2.122-2.122,6.1,6.1,0,0,0-2.08-.386c-1.181-.066-1.539-.047-4.527-.047s-3.346.01-4.527.066a6.089,6.089,0,0,0-2.081.386,3.724,3.724,0,0,0-2.1,2.1,6.088,6.088,0,0,0-.385,2.08c-.066,1.181-.066,1.539-.066,4.527s.01,3.347.066,4.528a6.088,6.088,0,0,0,.385,2.08,3.722,3.722,0,0,0,2.1,2.127,6.072,6.072,0,0,0,2.081.386c1.181.066,1.534.066,4.527.066s3.346-.01,4.527-.066a6.065,6.065,0,0,0,2.08-.386,3.72,3.72,0,0,0,2.122-2.122,6.068,6.068,0,0,0,.386-2.08c.066-1.181.066-1.539.066-4.527s-.01-3.346-.066-4.528A6.072,6.072,0,0,0,672.428,695.751ZM663.7,708.1a5.751,5.751,0,1,1,5.75-5.751A5.751,5.751,0,0,1,663.7,708.1Zm5.976-10.382a1.346,1.346,0,1,1,1.346-1.346A1.346,1.346,0,0,1,669.675,697.723Z" transform="translate(-3.983 -3.982)"/>
    <path id="Path_315" data-name="Path 315" class="cls-1" d="M659.715,678.371a20,20,0,1,0,20,20A20,20,0,0,0,659.715,678.371Zm11.2,24.617a8.213,8.213,0,0,1-.522,2.72A5.7,5.7,0,0,1,667.094,709a8.237,8.237,0,0,1-2.721.522c-1.195.066-1.576.066-4.616.066s-3.421-.014-4.617-.066a8.232,8.232,0,0,1-2.72-.522,5.7,5.7,0,0,1-3.294-3.295,8.219,8.219,0,0,1-.565-2.677c-.066-1.2-.066-1.577-.066-4.617s.015-3.421.066-4.616a8.237,8.237,0,0,1,.523-2.721,5.692,5.692,0,0,1,3.294-3.294,8.236,8.236,0,0,1,2.72-.522c1.2-.066,1.577-.066,4.617-.066s3.464-.029,4.659.023a8.238,8.238,0,0,1,2.721.522,5.694,5.694,0,0,1,3.294,3.294,8.222,8.222,0,0,1,.522,2.72c.066,1.2.066,1.576.066,4.616S670.962,701.793,670.91,702.988Z"/>
  </g>
</svg>
