<svg xmlns="http://www.w3.org/2000/svg" width="283.216" height="216.827" viewBox="0 0 283.216 216.827">
  <g id="iPad_Email_Support" data-name="iPad Email Support" transform="translate(-1017.628 -6312.335)">
    <g id="iPad_Frame" data-name="iPad Frame" transform="translate(1390.344 6223.344) rotate(90)">
      <path id="shape" d="M102.9,90c-8.486,0-13.4,5.849-13.4,13.382l0,255.451c0,7.533,4.918,13.383,13.405,13.383H291.914c8.487,0,13.4-5.85,13.4-13.383l0-255.451c0-7.533-4.918-13.382-13.4-13.382Z" transform="translate(0 0)" fill="rgba(0,0,0,0)" stroke="#000" stroke-miterlimit="10" stroke-width="1" fill-rule="evenodd"/>
      <path id="border_screen" data-name="border screen" d="M129.46,126.331H320.5a3.642,3.642,0,0,1,3.645,3.639h0l0,257.635a3.643,3.643,0,0,1-3.646,3.64H129.463a3.643,3.643,0,0,1-3.646-3.64l0-257.635a3.642,3.642,0,0,1,3.645-3.639Z" transform="translate(-27.626 -27.632)" fill="rgba(0,0,0,0)" stroke="#000" stroke-miterlimit="10" stroke-width="1" fill-rule="evenodd"/>
    </g>
    <text id="_" data-name="􀈟" transform="translate(1102.128 6342)" font-size="52" font-family="ArialMT, Arial"><tspan x="37.5" y="47">􀈟</tspan></text>
  </g>
</svg>
