<svg xmlns="http://www.w3.org/2000/svg" width="282.868" height="216.561" viewBox="0 0 282.868 216.561">
  <g id="iPad_Community_Help" data-name="iPad Community Help" transform="translate(-1017.824 -6312.481)">
    <g id="iPad_Frame" data-name="iPad Frame" transform="translate(1390.192 6223.49) rotate(90)">
      <path id="shape" d="M102.879,90c-8.476,0-13.388,5.842-13.388,13.366l0,255.136c0,7.523,4.912,13.366,13.389,13.366h188.78c8.476,0,13.388-5.843,13.388-13.366l0-255.136c0-7.524-4.912-13.366-13.388-13.366Z" transform="translate(0 0)" fill="rgba(0,0,0,0)" stroke="#000" stroke-miterlimit="10" stroke-width="1" fill-rule="evenodd"/>
      <path id="border_screen" data-name="border screen" d="M129.455,126.331H320.262a3.637,3.637,0,0,1,3.641,3.634h0l0,257.318a3.638,3.638,0,0,1-3.641,3.636H129.459a3.639,3.639,0,0,1-3.641-3.636l0-257.318a3.638,3.638,0,0,1,3.64-3.635Z" transform="translate(-27.637 -27.643)" fill="rgba(0,0,0,0)" stroke="#000" stroke-miterlimit="10" stroke-width="1" fill-rule="evenodd"/>
    </g>
    <text id="_" data-name="􀒤" transform="translate(1102.128 6339)" font-size="52" font-family="ArialMT, Arial"><tspan x="37.5" y="47">􀒤</tspan></text>
  </g>
</svg>
