<svg xmlns="http://www.w3.org/2000/svg" width="713.54" height="577" viewBox="0 0 713.54 577">
  <g id="left_group_devices" data-name="left group devices" transform="translate(209.04 -1311.5)">
    <g id="Layer_17" data-name="Layer 17" transform="translate(85.881 2478.958)">
      <path id="Path_135" data-name="Path 135" d="M23.219,0H320.781A23.219,23.219,0,0,1,344,23.219V138.43a23.219,23.219,0,0,1-23.219,23.219H23.219A23.219,23.219,0,0,1,0,138.43V23.219A23.219,23.219,0,0,1,23.219,0Z" transform="translate(-294.421 -1166.862)" fill="none" stroke="#1a1818" stroke-width="1"/>
    </g>
    <g id="Group_72" data-name="Group 72" transform="translate(133.975 1637.419)">
      <path id="Path_137" data-name="Path 137" d="M4.079,0h302.84A4.086,4.086,0,0,1,311,4.092V191.558H0V4.092A4.086,4.086,0,0,1,4.079,0Z" transform="translate(59.026 59.023)" fill="none" stroke="#000" stroke-width="1"/>
      <rect id="Rectangle_215" data-name="Rectangle 215" width="177.005" height="9.867" rx="4.933" transform="translate(126.023 62.186)" fill="none" stroke="#000" stroke-miterlimit="10" stroke-width="1"/>
      <ellipse id="Ellipse_24" data-name="Ellipse 24" cx="1.016" cy="1.019" rx="1.016" ry="1.019" transform="translate(76.256 66.442)" stroke="#000" stroke-miterlimit="10" stroke-width="1"/>
      <ellipse id="Ellipse_25" data-name="Ellipse 25" cx="1.016" cy="1.019" rx="1.016" ry="1.019" transform="translate(70.885 66.442)" stroke="#000" stroke-miterlimit="10" stroke-width="1"/>
      <ellipse id="Ellipse_26" data-name="Ellipse 26" cx="1.016" cy="1.019" rx="1.016" ry="1.019" transform="translate(65.515 66.442)" stroke="#000" stroke-miterlimit="10" stroke-width="1"/>
      <path id="Path_122" data-name="Path 122" d="M165.833,67.913l1.18.683-1.18.683Z" transform="translate(-47.05 -3.9)" stroke="#000" stroke-linecap="round" stroke-linejoin="round" stroke-width="1" fill-rule="evenodd"/>
      <line id="Line_2" data-name="Line 2" x2="310.85" transform="translate(59.1 75.082)" fill="none" stroke="#000" stroke-miterlimit="10" stroke-width="1"/>
      <path id="Path_123" data-name="Path 123" d="M165.935,71.9a2.763,2.763,0,1,1-2.763-2.771" transform="translate(-44.661 -4.435)" fill="none" stroke="#000" stroke-linecap="round" stroke-linejoin="round" stroke-width="1"/>
      <rect id="Rectangle_216" data-name="Rectangle 216" width="311" height="176" transform="translate(59.026 74.581)" fill="none" stroke="#000" stroke-miterlimit="10" stroke-width="1"/>
    </g>
    <g id="Group_83" data-name="Group 83" transform="translate(-207.688 1398.08)">
      <path id="shape" d="M355.587,489.919c13.359,0,21.1-9.221,21.1-21.1l-.006-349.81c0-11.874-7.742-21.094-21.1-21.094H114.836c-13.36,0-21.1,9.221-21.1,21.094v13.229l.006,336.581c0,11.874,7.742,21.1,21.1,21.1Z" transform="translate(0 0)" fill="none" stroke="#000" stroke-miterlimit="10" stroke-width="1" fill-rule="evenodd"/>
      <path id="border_screen" data-name="border screen" d="M367.1,486.264H123.039a5.737,5.737,0,0,1-5.738-5.736h0l-.006-342.917V126.962a5.738,5.738,0,0,1,5.738-5.738H367.1a5.738,5.738,0,0,1,5.738,5.738h0l.006,353.565a5.737,5.737,0,0,1-5.737,5.737Z" transform="translate(-9.856 -9.749)" fill="none" stroke="#000" stroke-miterlimit="10" stroke-width="1" fill-rule="evenodd"/>
    </g>
    <g id="Group_79" data-name="Group 79" transform="translate(152.83 1457.251)">
      <g id="Phone" transform="translate(38.63 38.749)">
        <path id="placeholder" d="M38.63,51.427c0-9.465,6.392-12.678,13.036-12.678h60.375c6.644,0,13.037,3.214,13.037,12.679V202.07c0,9.466-6.393,12.679-13.037,12.679H51.666c-6.644,0-13.036-3.214-13.036-12.679V51.427Z" transform="translate(-38.63 -38.749)" fill="none" stroke="#1a1818" stroke-miterlimit="10" stroke-width="1" fill-rule="evenodd"/>
      </g>
      <path id="Path_129" data-name="Path 129" d="M139.432,443.168a6.032,6.032,0,1,0,6.034,6.032,6.032,6.032,0,0,0-6.034-6.032Z" transform="translate(-57.549 -245.576)" fill="none" stroke="#1a1818" stroke-miterlimit="10" stroke-width="1" fill-rule="evenodd"/>
      <rect id="Rectangle_226" data-name="Rectangle 226" width="77.872" height="137.469" transform="translate(43.055 57.759)" fill="none" stroke="#1a1818" stroke-miterlimit="10" stroke-width="1"/>
    </g>
    <g id="Group_85" data-name="Group 85" transform="translate(380.647 1458.561)">
      <path id="Outer_Bezel_Frame" data-name="Outer Bezel Frame" d="M10.973,0H74.246A10.973,10.973,0,0,1,85.219,10.973V164.025A10.973,10.973,0,0,1,74.246,175H10.973A10.973,10.973,0,0,1,0,164.025V10.973A10.973,10.973,0,0,1,10.973,0Z" transform="translate(37.594 37.44)" fill="none" stroke="#000" stroke-width="1"/>
      <path id="Screen-2" d="M117.4,213.864H54.125a6.9,6.9,0,0,1-1.379-.139,6.839,6.839,0,0,1-5.323-5.323,6.9,6.9,0,0,1-.139-1.379V53.972a6.9,6.9,0,0,1,.139-1.379,6.836,6.836,0,0,1,5.323-5.323,6.9,6.9,0,0,1,1.379-.139H117.4a6.9,6.9,0,0,1,1.379.139,6.839,6.839,0,0,1,5.323,5.323,6.9,6.9,0,0,1,.139,1.379V207.024a6.906,6.906,0,0,1-.139,1.379,6.836,6.836,0,0,1-5.323,5.322A6.9,6.9,0,0,1,117.4,213.864Z" transform="translate(-5.559 -5.559)" fill="none" stroke="#000" stroke-miterlimit="10" stroke-width="1"/>
    </g>
    <g id="Group_78" data-name="Group 78" transform="translate(266.271 1459.543)">
      <path id="Path_144" data-name="Path 144" d="M13.354,0H72.288A13.354,13.354,0,0,1,85.641,13.354V162.647A13.354,13.354,0,0,1,72.288,176H13.354A13.354,13.354,0,0,1,0,162.647V13.354A13.354,13.354,0,0,1,13.354,0Z" transform="translate(37.6 36.458)" fill="none" stroke="#1a1818" stroke-width="1"/>
      <path id="Path_128" data-name="Path 128" d="M102.968,53.065a4.6,4.6,0,0,0,4.04-4.545v-.735a1.009,1.009,0,0,1,1.1-1.035h6.142c6.61,0,10.516,3.2,10.516,11.017l0,7.7.063,136.251c0,5.108-.3,12.485-11.718,12.485H59c-11.417,0-11.717-7.378-11.717-12.485l.063-136.931,0-7.021c0-7.812,3.906-11.017,10.516-11.017h6.142a1.01,1.01,0,0,1,1.1,1.035v.735a4.6,4.6,0,0,0,4.039,4.545Z" transform="translate(-5.622 -5.975)" fill="none" stroke="#1a1818" stroke-miterlimit="10" stroke-width="1"/>
    </g>
    <g id="Group_86" data-name="Group 86" transform="translate(325.832 1303.377)">
      <path id="Outer_Shape" data-name="Outer Shape" d="M147.168,118.866v5.676c0,1.644,0,3.236-.053,4.827a62.677,62.677,0,0,1-.9,10.451,34.644,34.644,0,0,1-3.288,9.919,33.292,33.292,0,0,1-14.64,14.641,34.638,34.638,0,0,1-9.917,3.289,76.409,76.409,0,0,1-10.449.9c-1.644,0-3.235.053-4.827.053H54.115c-1.591,0-3.181-.053-4.824-.053a76.317,76.317,0,0,1-10.443-.9,34.609,34.609,0,0,1-9.914-3.287A33.278,33.278,0,0,1,14.3,149.749a34.631,34.631,0,0,1-3.287-9.915,62.749,62.749,0,0,1-.9-10.444c-.053-1.591-.053-3.181-.053-4.825V52.681c0-1.644,0-3.235.053-4.825a62.747,62.747,0,0,1,.9-10.444A34.673,34.673,0,0,1,14.3,27.5,33.279,33.279,0,0,1,28.934,12.864a34.61,34.61,0,0,1,9.914-3.287,76.318,76.318,0,0,1,10.443-.9c1.643,0,3.233-.053,4.824-.053h48.977c1.591,0,3.183.053,4.827.053a76.41,76.41,0,0,1,10.449.9,34.639,34.639,0,0,1,9.917,3.289,33.3,33.3,0,0,1,14.64,14.641,34.644,34.644,0,0,1,3.288,9.919,62.677,62.677,0,0,1,.9,10.451c.053,1.591.053,3.183.053,4.827Z" transform="translate(0 0)" fill="none" stroke="#1a1818" stroke-miterlimit="10" stroke-width="1" fill-rule="evenodd"/>
      <path id="Screen" d="M127.906,121.435v3.186c0,.923,0,1.817-.029,2.709a35.209,35.209,0,0,1-.505,5.866,19.461,19.461,0,0,1-1.842,5.568,18.668,18.668,0,0,1-8.2,8.219,19.392,19.392,0,0,1-5.558,1.846,42.852,42.852,0,0,1-5.854.507c-.922,0-1.813.028-2.7.028H47.258c-.891,0-1.782-.028-2.7-.028a42.6,42.6,0,0,1-5.851-.507,19.358,19.358,0,0,1-5.553-1.845,18.664,18.664,0,0,1-8.2-8.215,19.454,19.454,0,0,1-1.841-5.565,35.027,35.027,0,0,1-.505-5.863c-.029-.892-.029-1.786-.029-2.708V45.867c0-.923,0-1.815.029-2.709a35.05,35.05,0,0,1,.505-5.863,19.455,19.455,0,0,1,1.841-5.565,18.655,18.655,0,0,1,8.2-8.214A19.322,19.322,0,0,1,38.7,21.67a42.8,42.8,0,0,1,5.851-.505c.92,0,1.812-.028,2.7-.028h55.951c.892,0,1.784.028,2.705.028a42.654,42.654,0,0,1,5.854.507,19.353,19.353,0,0,1,5.558,1.846,18.658,18.658,0,0,1,8.2,8.22,19.464,19.464,0,0,1,1.843,5.568,35.341,35.341,0,0,1,.505,5.865c.028.894.028,1.787.028,2.71v75.554Z" transform="translate(3.373 3.373)" fill="none" stroke="#1a1818" stroke-miterlimit="10" stroke-width="1" fill-rule="evenodd"/>
    </g>
    <g id="Layer_12" data-name="Layer 12" transform="translate(792.252 2393.206)">
      <path id="Path_134" data-name="Path 134" d="M10.344,0h131.9a10.344,10.344,0,0,1,10.344,10.344V149.656A10.344,10.344,0,0,1,142.242,160H10.344A10.344,10.344,0,0,1,0,149.656V10.344A10.344,10.344,0,0,1,10.344,0Z" transform="translate(-632.051 -1081.206)" fill="none" stroke="#1a1818" stroke-width="1"/>
    </g>
  </g>
</svg>
