<svg xmlns="http://www.w3.org/2000/svg" width="180" height="210" viewBox="0 0 180 210">
  <g id="PDF_Doc" data-name="PDF Doc" transform="translate(-315 -6736)">
    <path id="Doc_1" data-name="Doc 1" d="M17.573,144.029H91.556q8.684,0,13.128-4.478t4.444-13.095V58.217a21.337,21.337,0,0,0-.307-3.932,8.372,8.372,0,0,0-1.094-2.872,13.784,13.784,0,0,0-2.222-2.632L60.444,3.722a12.261,12.261,0,0,0-2.667-2.188A10.629,10.629,0,0,0,54.906.405a17.081,17.081,0,0,0-3.9-.376H17.573Q9.094.029,4.547,4.508T0,17.67V126.456q0,8.616,4.479,13.095T17.573,144.029Zm.137-3.35q-7.111,0-10.735-3.624T3.35,126.32V17.807q0-6.838,3.624-10.6T17.709,3.448H52.923V47.482q0,4.718,2.256,6.769T61.744,56.3h44.034V126.32q0,7.111-3.624,10.735t-10.735,3.624ZM61.88,52.952q-3.009,0-4.308-1.265t-1.3-4.342V4.337l48.616,48.615Z" transform="translate(348 6735.971)" fill="rgba(0,0,0,0.85)"/>
    <text id="PDF" transform="translate(403 6856)" font-size="22" font-family="SegoeUI, Segoe UI"><tspan x="-19.245" y="0">PDF</tspan></text>
    <text id="kjdjsldjoskd.pdf" transform="translate(315 6925)" font-size="20" font-family="ArialMT, Arial"><tspan x="20.188" y="18">kjdjsldjoskd.pdf</tspan></text>
  </g>
</svg>
