<svg xmlns="http://www.w3.org/2000/svg" width="589.814" height="577" viewBox="0 0 589.814 577">
  <g id="right_group_devices" data-name="right group devices" transform="translate(-1415.5 -1311.5)">
    <g id="Group_74" data-name="Group 74" transform="translate(1595.974 1252.728)">
      <path id="Path_138" data-name="Path 138" d="M5.093,0H342.846a5,5,0,0,1,5.086,4.9V250.621a5,5,0,0,1-5.093,4.9H5.093A5,5,0,0,1,0,250.621V4.9A5,5,0,0,1,5.093,0Z" transform="translate(59.027 59.383)" fill="none" stroke="#040505" stroke-width="1"/>
      <ellipse id="Ellipse_30" data-name="Ellipse 30" cx="1.136" cy="1.041" rx="1.136" ry="1.041" transform="translate(72.294 66.965)" fill="#040505" stroke="#040505" stroke-miterlimit="10" stroke-width="1"/>
      <ellipse id="Ellipse_31" data-name="Ellipse 31" cx="1.136" cy="1.041" rx="1.136" ry="1.041" transform="translate(78.302 66.965)" fill="#040505" stroke="#040505" stroke-miterlimit="10" stroke-width="1"/>
      <ellipse id="Ellipse_32" data-name="Ellipse 32" cx="1.136" cy="1.041" rx="1.136" ry="1.041" transform="translate(66.286 66.965)" fill="#040505" stroke="#040505" stroke-miterlimit="10" stroke-width="1"/>
    </g>
    <g id="Group_84" data-name="Group 84" transform="translate(1724.005 1528.557)">
      <path id="Body-2" d="M89.367,63.443H266.438c4.273,0,6.305.392,8.417,1.521a10.686,10.686,0,0,1,4.434,4.434c1.129,2.111,1.521,4.143,1.521,8.417V345.071c0,4.273-.392,6.305-1.521,8.417a10.688,10.688,0,0,1-4.434,4.434c-2.111,1.129-4.143,1.521-8.417,1.521H89.367c-4.273,0-6.305-.392-8.417-1.521a10.688,10.688,0,0,1-4.434-4.434C75.387,351.376,75,349.344,75,345.071V77.814c0-4.273.392-6.305,1.521-8.416a10.686,10.686,0,0,1,4.434-4.434C83.061,63.835,85.094,63.443,89.367,63.443Z" transform="translate(0)" fill="none" stroke="#000" stroke-miterlimit="10" stroke-width="1"/>
      <path id="Path_132" data-name="Path 132" d="M313.3,742.668a6.236,6.236,0,1,1,2.432-.491A6.216,6.216,0,0,1,313.3,742.668Z" transform="translate(-135.399 -389.019)" fill="none" stroke="#000" stroke-miterlimit="10" stroke-width="1"/>
      <rect id="Screen_Edge" data-name="Screen Edge" width="185.369" height="246.704" rx="1.636" transform="translate(85.218 88.318)" fill="none" stroke="#000" stroke-miterlimit="10" stroke-width="1"/>
    </g>
    <g id="Group_80" data-name="Group 80" transform="translate(1447 1696.001)">
      <g id="Phone" transform="translate(0 0)">
        <path id="placeholder" d="M38.5,54.451C38.5,42.77,46.4,38.8,54.614,38.8H115.72c8.211,0,16.111,3.967,16.111,15.648v160.7c0,11.684-7.9,15.648-16.11,15.648H54.614c-8.21,0-16.111-3.966-16.111-15.648V54.451Z" transform="translate(-38.503 -38.803)" fill="none" stroke="#1a1818" stroke-miterlimit="10" stroke-width="1" fill-rule="evenodd"/>
      </g>
      <path id="Path_130" data-name="Path 130" d="M125.815,389.007a7.445,7.445,0,1,0,7.456,7.445,7.444,7.444,0,0,0-7.456-7.445h0Z" transform="translate(-79.17 -217.09)" fill="none" stroke="#1a1818" stroke-miterlimit="10" stroke-width="1" fill-rule="evenodd"/>
      <rect id="Rectangle_227" data-name="Rectangle 227" width="83.583" height="147.762" transform="translate(4.555 22.292)" fill="none" stroke="#1a1818" stroke-miterlimit="10" stroke-width="1"/>
    </g>
    <g id="Group_75" data-name="Group 75" transform="translate(1646.775 1662.226)">
      <path id="Path_142" data-name="Path 142" d="M13.237,0H170.763A13.237,13.237,0,0,1,184,13.237v62.7a13.237,13.237,0,0,1-13.237,13.237H13.237A13.237,13.237,0,0,1,0,75.933v-62.7A13.237,13.237,0,0,1,13.237,0Z" transform="translate(129.394 41.774) rotate(90)" fill="none" stroke="#1a1818" stroke-width="1"/>
      <rect id="Rectangle_222" data-name="Rectangle 222" width="140.02" height="79.592" rx="1.486" transform="translate(124.841 63.701) rotate(90)" fill="none" stroke="#1a1818" stroke-miterlimit="10" stroke-width="1"/>
      <circle id="Ellipse_33" data-name="Ellipse 33" cx="6.52" cy="6.52" r="6.52" transform="translate(78.289 207.102)" fill="none" stroke="#1a1818" stroke-miterlimit="10" stroke-width="1"/>
    </g>
    <g id="Group_71" data-name="Group 71" transform="translate(1356.974 1252.978)">
      <path id="Path_133" data-name="Path 133" d="M4.7,0H211.3A4.668,4.668,0,0,1,216,4.638V360H0V4.638A4.668,4.668,0,0,1,4.7,0Z" transform="translate(59.027 59.023)" fill="none" stroke="#000" stroke-width="1"/>
      <rect id="Rectangle_213" data-name="Rectangle 213" width="122.937" height="6.743" rx="3.371" transform="translate(105.558 61.184)" fill="none" stroke="#000" stroke-miterlimit="10" stroke-width="1"/>
      <ellipse id="Ellipse_21" data-name="Ellipse 21" cx="0.705" cy="0.696" rx="0.705" ry="0.696" transform="translate(70.993 64.093)" stroke="#000" stroke-miterlimit="10" stroke-width="1"/>
      <ellipse id="Ellipse_22" data-name="Ellipse 22" cx="0.705" cy="0.696" rx="0.705" ry="0.696" transform="translate(67.263 64.093)" stroke="#000" stroke-miterlimit="10" stroke-width="1"/>
      <ellipse id="Ellipse_23" data-name="Ellipse 23" cx="0.705" cy="0.696" rx="0.705" ry="0.696" transform="translate(63.533 64.093)" stroke="#000" stroke-miterlimit="10" stroke-width="1"/>
      <path id="Path_120" data-name="Path 120" d="M165.833,67.913l.819.467-.819.467Z" transform="translate(-65.303 -5.48)" stroke="#000" stroke-linecap="round" stroke-linejoin="round" stroke-width="1" fill-rule="evenodd"/>
      <line id="Line_1" data-name="Line 1" x2="215.897" transform="translate(59.078 69.997)" fill="none" stroke="#000" stroke-miterlimit="10" stroke-width="1"/>
      <path id="Path_121" data-name="Path 121" d="M164.248,71.024a1.919,1.919,0,1,1-1.919-1.893" transform="translate(-61.988 -6.231)" fill="none" stroke="#000" stroke-linecap="round" stroke-linejoin="round" stroke-width="1"/>
    </g>
    <g id="Group_76" data-name="Group 76" transform="translate(1531.484 1657.089)">
      <path id="Path_143" data-name="Path 143" d="M14.556,0H78.8A14.556,14.556,0,0,1,93.355,14.556V177.3A14.556,14.556,0,0,1,78.8,191.854H14.557A14.557,14.557,0,0,1,0,177.3V14.556A14.556,14.556,0,0,1,14.556,0Z" transform="translate(38.16 38.912)" fill="none" stroke="#1a1818" stroke-width="1"/>
      <path id="Path_126" data-name="Path 126" d="M109.344,56.939a5.01,5.01,0,0,0,4.4-4.954v-.8a1.1,1.1,0,0,1,1.2-1.129h6.7c7.2,0,11.463,3.494,11.463,12.009l.006,12.275.067,144.643c0,5.567-.327,13.61-12.773,13.61H61.417c-12.445,0-12.773-8.042-12.773-13.61l.069-147.672,0-9.246c0-8.516,4.257-12.009,11.463-12.009h6.7a1.1,1.1,0,0,1,1.2,1.129v.8a5.01,5.01,0,0,0,4.4,4.954Z" transform="translate(-6.056 -6.437)" fill="none" stroke="#1a1818" stroke-miterlimit="10" stroke-width="1"/>
    </g>
    <path id="Path_136" data-name="Path 136" d="M19.338,0H68.662A19.338,19.338,0,0,1,88,19.338V68.662A19.338,19.338,0,0,1,68.662,88H19.338A19.338,19.338,0,0,1,0,68.662V19.338A19.338,19.338,0,0,1,19.338,0Z" transform="translate(1655 1592)" fill="none" stroke="#040505" stroke-linecap="square" stroke-width="1"/>
  </g>
</svg>
