<svg xmlns="http://www.w3.org/2000/svg" width="40" height="40" viewBox="0 0 40 40">
  <defs>
    <style>
      .cls-1 {
        fill: #fff;
      }
    </style>
  </defs>
  <path id="Tiktok" class="cls-1" d="M804.5,678.4a20,20,0,1,0,20,20A20,20,0,0,0,804.5,678.4Zm10.494,17.412a9.088,9.088,0,0,1-5.647-1.647v7.3c0,9.289-10.127,12.183-14.188,5.534-2.617-4.277-1.011-11.8,7.379-12.094v4.128a12.987,12.987,0,0,0-1.939.47c-1.882.626-2.918,1.817-2.626,3.9.57,4,7.9,5.176,7.285-2.626v-14.6h4.03l0-.014.019.014h-.017c.418,3.469,2.356,5.535,5.706,5.746Z" transform="translate(-784.497 -678.395)"/>
</svg>
