<svg xmlns="http://www.w3.org/2000/svg" width="40" height="40" viewBox="0 0 40 40">
  <defs>
    <style>
      .cls-1 {
        fill: #fff;
      }
    </style>
  </defs>
  <path id="Twitter" class="cls-1" d="M736.259,678.4a20,20,0,1,0,20,20A20,20,0,0,0,736.259,678.4Zm8.922,15.431v.6a13.081,13.081,0,0,1-20.137,11.007,9.269,9.269,0,0,0,6.8-1.892,4.593,4.593,0,0,1-4.292-3.19,4.681,4.681,0,0,0,2.075-.081,4.6,4.6,0,0,1-3.689-4.5V695.7a4.591,4.591,0,0,0,2.085.574,4.6,4.6,0,0,1-1.412-6.117,13.07,13.07,0,0,0,9.478,4.776,4.815,4.815,0,0,1-.118-1.049,4.6,4.6,0,0,1,7.948-3.144,9.149,9.149,0,0,0,2.918-1.115,4.593,4.593,0,0,1-2.018,2.546,9.331,9.331,0,0,0,2.639-.725A9.311,9.311,0,0,1,745.181,693.826Z" transform="translate(-716.259 -678.395)"/>
</svg>
